<?xml version="1.0" encoding="iso-8859-1"?>
<!-- Uploaded to: SVG Repo, www.svgrepo.com, Generator: SVG Repo Mixer Tools -->
<!DOCTYPE svg PUBLIC "-//W3C//DTD SVG 1.1//EN" "http://www.w3.org/Graphics/SVG/1.1/DTD/svg11.dtd">
<svg fill="#000000" height="800px" width="800px" version="1.1" id="Capa_1" xmlns="http://www.w3.org/2000/svg" xmlns:xlink="http://www.w3.org/1999/xlink" 
	 viewBox="0 0 439.001 439.001" xml:space="preserve">
<path id="XMLID_864_" d="M249.494,324.49c-8.142-8.166-18.978-12.673-30.509-12.69c-0.023,0-0.043,0-0.067,0
	c-7.947,0-15.492,2.147-22.011,6.007V10c0-5.522-4.477-10-10-10s-10,4.478-10,10v419c0,8.692,10.336,13.199,16.72,7.39
	c1.588-0.818,27.626-20.186,40.136-31.118c14.695-12.84,28.299-27.813,28.332-50.235
	C262.111,343.505,257.637,332.657,249.494,324.49z M220.603,390.212c-6.383,5.578-15.868,12.97-23.696,18.925v-62.545
	c0.474-0.577,0.808-1.261,1.244-1.906c5.423-8.019,11.904-12.886,20.768-12.886c0.012,0,0.024,0,0.036,0
	c12.778,0.02,23.159,10.43,23.14,23.208C242.074,368.704,233.856,378.632,220.603,390.212z"/>
</svg>