<?xml version="1.0" encoding="iso-8859-1"?>
<!-- Uploaded to: SVG Repo, www.svgrepo.com, Generator: SVG Repo Mixer Tools -->
<!DOCTYPE svg PUBLIC "-//W3C//DTD SVG 1.1//EN" "http://www.w3.org/Graphics/SVG/1.1/DTD/svg11.dtd">
<svg fill="#000000" height="800px" width="800px" version="1.1" id="Capa_1" xmlns="http://www.w3.org/2000/svg" xmlns:xlink="http://www.w3.org/1999/xlink" 
	 viewBox="0 0 460.691 460.691" xml:space="preserve">
<path id="XMLID_792_" d="M266.155,97.696c0.007-9.028-10.874-13.274-17.071-7.076l-34.548,34.547V10c0-5.522-4.478-10-10-10
	s-10,4.478-10,10c0,15.736,0,337.784,0,352.995c-0.006,8.687,10.603,13.506,17.071,7.076l34.548-34.547v115.167
	c0,5.522,4.478,10,10,10s10-4.478,10-10C266.155,434.955,266.155,112.907,266.155,97.696z M246.155,253.239l-31.619,31.619v-77.406
	l31.619-31.619V253.239z M246.155,121.833v25.715l-31.619,31.619v-25.715L246.155,121.833z M214.536,338.858v-25.715l31.619-31.619
	v25.715L214.536,338.858z"/>
</svg>